<mxfile host="app.diagrams.net" agent="Mozilla/5.0 (Windows NT 10.0; Win64; x64) AppleWebKit/537.36 (KHTML, like Gecko) Chrome/133.0.0.0 Safari/537.36" version="26.0.15">
  <diagram id="C5RBs43oDa-KdzZeNtuy" name="Page-1">
    <mxGraphModel dx="1004" dy="587" grid="1" gridSize="10" guides="1" tooltips="1" connect="1" arrows="1" fold="1" page="1" pageScale="1" pageWidth="827" pageHeight="1169" math="0" shadow="0">
      <root>
        <mxCell id="WIyWlLk6GJQsqaUBKTNV-0" />
        <mxCell id="WIyWlLk6GJQsqaUBKTNV-1" parent="WIyWlLk6GJQsqaUBKTNV-0" />
        <mxCell id="qqPHvIkrnW2sJcI03h3k-22" style="edgeStyle=orthogonalEdgeStyle;rounded=0;orthogonalLoop=1;jettySize=auto;html=1;exitX=0.5;exitY=1;exitDx=0;exitDy=0;entryX=0.5;entryY=0;entryDx=0;entryDy=0;" edge="1" parent="WIyWlLk6GJQsqaUBKTNV-1" source="WIyWlLk6GJQsqaUBKTNV-3" target="WIyWlLk6GJQsqaUBKTNV-6">
          <mxGeometry relative="1" as="geometry" />
        </mxCell>
        <mxCell id="WIyWlLk6GJQsqaUBKTNV-3" value="&lt;p data-pm-slice=&quot;0 0 []&quot;&gt;Assign Part Renderers  and Start Fetching Data&lt;/p&gt;" style="rounded=1;whiteSpace=wrap;html=1;fontSize=12;glass=0;strokeWidth=1;shadow=0;" parent="WIyWlLk6GJQsqaUBKTNV-1" vertex="1">
          <mxGeometry x="160" y="90" width="120" height="50" as="geometry" />
        </mxCell>
        <mxCell id="qqPHvIkrnW2sJcI03h3k-1" style="edgeStyle=orthogonalEdgeStyle;rounded=0;orthogonalLoop=1;jettySize=auto;html=1;exitX=0.5;exitY=1;exitDx=0;exitDy=0;entryX=0.5;entryY=0;entryDx=0;entryDy=0;" edge="1" parent="WIyWlLk6GJQsqaUBKTNV-1" source="WIyWlLk6GJQsqaUBKTNV-6" target="eBNX_4J-cR-1eQRvhwGJ-7">
          <mxGeometry relative="1" as="geometry" />
        </mxCell>
        <mxCell id="qqPHvIkrnW2sJcI03h3k-3" style="edgeStyle=orthogonalEdgeStyle;rounded=0;orthogonalLoop=1;jettySize=auto;html=1;exitX=1;exitY=0.5;exitDx=0;exitDy=0;entryX=0;entryY=0.5;entryDx=0;entryDy=0;" edge="1" parent="WIyWlLk6GJQsqaUBKTNV-1" source="WIyWlLk6GJQsqaUBKTNV-6" target="WIyWlLk6GJQsqaUBKTNV-7">
          <mxGeometry relative="1" as="geometry" />
        </mxCell>
        <mxCell id="WIyWlLk6GJQsqaUBKTNV-6" value="&lt;span class=&quot;hljs-keyword&quot;&gt;Check&lt;/span&gt; &lt;span class=&quot;hljs-keyword&quot;&gt;if&lt;/span&gt; Fetching &lt;span class=&quot;hljs-keyword&quot;&gt;is&lt;/span&gt; &lt;span class=&quot;hljs-keyword&quot;&gt;in&lt;/span&gt; Progress" style="rhombus;whiteSpace=wrap;html=1;shadow=0;fontFamily=Helvetica;fontSize=12;align=center;strokeWidth=1;spacing=6;spacingTop=-4;" parent="WIyWlLk6GJQsqaUBKTNV-1" vertex="1">
          <mxGeometry x="170" y="175" width="100" height="75" as="geometry" />
        </mxCell>
        <mxCell id="WIyWlLk6GJQsqaUBKTNV-7" value="Wait &amp;amp; Retry" style="rounded=1;whiteSpace=wrap;html=1;fontSize=12;glass=0;strokeWidth=1;shadow=0;" parent="WIyWlLk6GJQsqaUBKTNV-1" vertex="1">
          <mxGeometry x="320" y="192.5" width="120" height="40" as="geometry" />
        </mxCell>
        <mxCell id="eBNX_4J-cR-1eQRvhwGJ-2" value="START" style="rounded=1;whiteSpace=wrap;html=1;" parent="WIyWlLk6GJQsqaUBKTNV-1" vertex="1">
          <mxGeometry x="160" y="10" width="120" height="40" as="geometry" />
        </mxCell>
        <mxCell id="eBNX_4J-cR-1eQRvhwGJ-5" value="" style="endArrow=classic;html=1;rounded=0;entryX=0.5;entryY=0;entryDx=0;entryDy=0;" parent="WIyWlLk6GJQsqaUBKTNV-1" target="WIyWlLk6GJQsqaUBKTNV-3" edge="1">
          <mxGeometry width="50" height="50" relative="1" as="geometry">
            <mxPoint x="219.5" y="50" as="sourcePoint" />
            <mxPoint x="219.5" y="80" as="targetPoint" />
          </mxGeometry>
        </mxCell>
        <mxCell id="qqPHvIkrnW2sJcI03h3k-6" style="edgeStyle=orthogonalEdgeStyle;rounded=0;orthogonalLoop=1;jettySize=auto;html=1;exitX=0.5;exitY=1;exitDx=0;exitDy=0;entryX=0.5;entryY=0;entryDx=0;entryDy=0;" edge="1" parent="WIyWlLk6GJQsqaUBKTNV-1" source="eBNX_4J-cR-1eQRvhwGJ-7" target="qqPHvIkrnW2sJcI03h3k-5">
          <mxGeometry relative="1" as="geometry" />
        </mxCell>
        <mxCell id="eBNX_4J-cR-1eQRvhwGJ-7" value="Send API Request &lt;span class=&quot;hljs-keyword&quot;&gt;to&lt;/span&gt; ThingSpeak" style="rounded=1;whiteSpace=wrap;html=1;" parent="WIyWlLk6GJQsqaUBKTNV-1" vertex="1">
          <mxGeometry x="160" y="290" width="120" height="40" as="geometry" />
        </mxCell>
        <mxCell id="qqPHvIkrnW2sJcI03h3k-13" style="edgeStyle=orthogonalEdgeStyle;rounded=0;orthogonalLoop=1;jettySize=auto;html=1;exitX=1;exitY=0.5;exitDx=0;exitDy=0;entryX=0;entryY=0.5;entryDx=0;entryDy=0;" edge="1" parent="WIyWlLk6GJQsqaUBKTNV-1" source="eBNX_4J-cR-1eQRvhwGJ-11" target="qqPHvIkrnW2sJcI03h3k-12">
          <mxGeometry relative="1" as="geometry" />
        </mxCell>
        <mxCell id="eBNX_4J-cR-1eQRvhwGJ-11" value="&lt;div&gt;&lt;font&gt;&lt;span style=&quot;&quot; class=&quot;hljs-built_in&quot;&gt;&lt;br&gt;&lt;/span&gt;&lt;/font&gt;&lt;/div&gt;&lt;span class=&quot;hljs-keyword&quot;&gt;Check&lt;/span&gt; &lt;span class=&quot;hljs-keyword&quot;&gt;If&lt;/span&gt; Temperature Data &lt;span class=&quot;hljs-keyword&quot;&gt;is&lt;/span&gt; &lt;span class=&quot;hljs-keyword&quot;&gt;Valid&lt;/span&gt;" style="rhombus;whiteSpace=wrap;html=1;" parent="WIyWlLk6GJQsqaUBKTNV-1" vertex="1">
          <mxGeometry x="150" y="500" width="140" height="100" as="geometry" />
        </mxCell>
        <mxCell id="eBNX_4J-cR-1eQRvhwGJ-33" value="&lt;span class=&quot;hljs-keyword&quot;&gt;Update&lt;/span&gt; AR Model Color &lt;span class=&quot;hljs-keyword&quot;&gt;in&lt;/span&gt; Unity" style="rounded=1;whiteSpace=wrap;html=1;fontSize=12;glass=0;strokeWidth=1;shadow=0;" parent="WIyWlLk6GJQsqaUBKTNV-1" vertex="1">
          <mxGeometry x="570" y="367.5" width="140" height="55" as="geometry" />
        </mxCell>
        <mxCell id="qqPHvIkrnW2sJcI03h3k-18" style="edgeStyle=orthogonalEdgeStyle;rounded=0;orthogonalLoop=1;jettySize=auto;html=1;exitX=0;exitY=0.5;exitDx=0;exitDy=0;entryX=1;entryY=0.5;entryDx=0;entryDy=0;" edge="1" parent="WIyWlLk6GJQsqaUBKTNV-1" source="eBNX_4J-cR-1eQRvhwGJ-36" target="qqPHvIkrnW2sJcI03h3k-5">
          <mxGeometry relative="1" as="geometry" />
        </mxCell>
        <mxCell id="eBNX_4J-cR-1eQRvhwGJ-36" value="&lt;span class=&quot;hljs-variable&quot;&gt;Wait&lt;/span&gt;&amp;nbsp;for Next Data&lt;span class=&quot;hljs-variable&quot;&gt;&amp;nbsp;and Repeat the process&lt;/span&gt;" style="rounded=1;whiteSpace=wrap;html=1;fontSize=12;glass=0;strokeWidth=1;shadow=0;" parent="WIyWlLk6GJQsqaUBKTNV-1" vertex="1">
          <mxGeometry x="370" y="365" width="130" height="60" as="geometry" />
        </mxCell>
        <mxCell id="eBNX_4J-cR-1eQRvhwGJ-37" value="&lt;span class=&quot;hljs-keyword&quot;&gt;Log&lt;/span&gt; Error &amp;amp; Retry" style="rounded=1;whiteSpace=wrap;html=1;fontSize=12;glass=0;strokeWidth=1;shadow=0;" parent="WIyWlLk6GJQsqaUBKTNV-1" vertex="1">
          <mxGeometry x="40" y="590" width="120" height="50" as="geometry" />
        </mxCell>
        <mxCell id="eBNX_4J-cR-1eQRvhwGJ-41" value="" style="endArrow=classic;html=1;rounded=0;exitX=0;exitY=0.5;exitDx=0;exitDy=0;entryX=1;entryY=0.5;entryDx=0;entryDy=0;" parent="WIyWlLk6GJQsqaUBKTNV-1" source="eBNX_4J-cR-1eQRvhwGJ-33" target="eBNX_4J-cR-1eQRvhwGJ-36" edge="1">
          <mxGeometry width="50" height="50" relative="1" as="geometry">
            <mxPoint x="410" y="450" as="sourcePoint" />
            <mxPoint x="460" y="400" as="targetPoint" />
          </mxGeometry>
        </mxCell>
        <mxCell id="qqPHvIkrnW2sJcI03h3k-0" value="&lt;span style=&quot;color: rgb(0, 0, 0); font-family: Helvetica; font-size: 11px; font-style: normal; font-variant-ligatures: normal; font-variant-caps: normal; font-weight: 400; letter-spacing: normal; orphans: 2; text-align: center; text-indent: 0px; text-transform: none; widows: 2; word-spacing: 0px; -webkit-text-stroke-width: 0px; white-space: nowrap; background-color: rgb(251, 251, 251); text-decoration-thickness: initial; text-decoration-style: initial; text-decoration-color: initial; display: inline !important; float: none;&quot;&gt;Yes&lt;/span&gt;" style="text;whiteSpace=wrap;html=1;" vertex="1" parent="WIyWlLk6GJQsqaUBKTNV-1">
          <mxGeometry x="280" y="180" width="50" height="40" as="geometry" />
        </mxCell>
        <mxCell id="qqPHvIkrnW2sJcI03h3k-4" value="&lt;span style=&quot;color: rgb(0, 0, 0); font-family: Helvetica; font-size: 11px; font-style: normal; font-variant-ligatures: normal; font-variant-caps: normal; font-weight: 400; letter-spacing: normal; orphans: 2; text-align: center; text-indent: 0px; text-transform: none; widows: 2; word-spacing: 0px; -webkit-text-stroke-width: 0px; white-space: nowrap; background-color: rgb(251, 251, 251); text-decoration-thickness: initial; text-decoration-style: initial; text-decoration-color: initial; float: none; display: inline !important;&quot;&gt;No&lt;/span&gt;" style="text;whiteSpace=wrap;html=1;" vertex="1" parent="WIyWlLk6GJQsqaUBKTNV-1">
          <mxGeometry x="224" y="250" width="50" height="40" as="geometry" />
        </mxCell>
        <mxCell id="qqPHvIkrnW2sJcI03h3k-5" value="Receive API Response and Parse &lt;span class=&quot;hljs-type&quot;&gt;JSON&lt;/span&gt; Data" style="rounded=1;whiteSpace=wrap;html=1;" vertex="1" parent="WIyWlLk6GJQsqaUBKTNV-1">
          <mxGeometry x="155" y="367.5" width="130" height="55" as="geometry" />
        </mxCell>
        <mxCell id="qqPHvIkrnW2sJcI03h3k-7" style="edgeStyle=orthogonalEdgeStyle;rounded=0;orthogonalLoop=1;jettySize=auto;html=1;exitX=0.5;exitY=1;exitDx=0;exitDy=0;" edge="1" parent="WIyWlLk6GJQsqaUBKTNV-1" source="qqPHvIkrnW2sJcI03h3k-5">
          <mxGeometry relative="1" as="geometry">
            <mxPoint x="220" y="500" as="targetPoint" />
          </mxGeometry>
        </mxCell>
        <mxCell id="qqPHvIkrnW2sJcI03h3k-9" value="" style="endArrow=classic;html=1;rounded=0;entryX=0.5;entryY=0;entryDx=0;entryDy=0;exitX=0;exitY=0.5;exitDx=0;exitDy=0;" edge="1" parent="WIyWlLk6GJQsqaUBKTNV-1" source="eBNX_4J-cR-1eQRvhwGJ-11" target="eBNX_4J-cR-1eQRvhwGJ-37">
          <mxGeometry width="50" height="50" relative="1" as="geometry">
            <mxPoint x="150" y="510" as="sourcePoint" />
            <mxPoint x="80" y="550" as="targetPoint" />
          </mxGeometry>
        </mxCell>
        <mxCell id="qqPHvIkrnW2sJcI03h3k-10" value="&lt;span style=&quot;color: rgb(0, 0, 0); font-family: Helvetica; font-size: 11px; font-style: normal; font-variant-ligatures: normal; font-variant-caps: normal; font-weight: 400; letter-spacing: normal; orphans: 2; text-align: center; text-indent: 0px; text-transform: none; widows: 2; word-spacing: 0px; -webkit-text-stroke-width: 0px; white-space: nowrap; background-color: rgb(251, 251, 251); text-decoration-thickness: initial; text-decoration-style: initial; text-decoration-color: initial; float: none; display: inline !important;&quot;&gt;No&lt;/span&gt;" style="text;whiteSpace=wrap;html=1;" vertex="1" parent="WIyWlLk6GJQsqaUBKTNV-1">
          <mxGeometry x="90" y="550" width="50" height="40" as="geometry" />
        </mxCell>
        <mxCell id="qqPHvIkrnW2sJcI03h3k-15" style="edgeStyle=orthogonalEdgeStyle;rounded=0;orthogonalLoop=1;jettySize=auto;html=1;exitX=1;exitY=0.5;exitDx=0;exitDy=0;entryX=0;entryY=0.5;entryDx=0;entryDy=0;" edge="1" parent="WIyWlLk6GJQsqaUBKTNV-1" source="qqPHvIkrnW2sJcI03h3k-12" target="qqPHvIkrnW2sJcI03h3k-14">
          <mxGeometry relative="1" as="geometry" />
        </mxCell>
        <mxCell id="qqPHvIkrnW2sJcI03h3k-12" value="Compare Extracted Temperature &lt;span class=&quot;hljs-keyword&quot;&gt;Value&lt;/span&gt;" style="rounded=1;whiteSpace=wrap;html=1;" vertex="1" parent="WIyWlLk6GJQsqaUBKTNV-1">
          <mxGeometry x="340" y="530" width="120" height="40" as="geometry" />
        </mxCell>
        <mxCell id="qqPHvIkrnW2sJcI03h3k-16" style="edgeStyle=orthogonalEdgeStyle;rounded=0;orthogonalLoop=1;jettySize=auto;html=1;exitX=0.5;exitY=0;exitDx=0;exitDy=0;" edge="1" parent="WIyWlLk6GJQsqaUBKTNV-1" source="qqPHvIkrnW2sJcI03h3k-14" target="eBNX_4J-cR-1eQRvhwGJ-33">
          <mxGeometry relative="1" as="geometry" />
        </mxCell>
        <mxCell id="qqPHvIkrnW2sJcI03h3k-14" value="&lt;strong data-is-only-node=&quot;&quot; data-end=&quot;38&quot; data-start=&quot;0&quot;&gt;Above Preset Value → Set Red Color&lt;/strong&gt;&lt;div&gt;&lt;b&gt;&lt;br data-end=&quot;41&quot; data-start=&quot;38&quot;&gt;&lt;/b&gt;&lt;strong data-end=&quot;84&quot; data-start=&quot;41&quot;&gt;Between Preset Values → Set Green Color&lt;/strong&gt;&lt;/div&gt;&lt;div&gt;&lt;b&gt;&lt;br data-end=&quot;87&quot; data-start=&quot;84&quot;&gt;&lt;/b&gt;&lt;strong data-is-last-node=&quot;&quot; data-end=&quot;126&quot; data-start=&quot;87&quot;&gt;Below Preset Value → Set Blue Color&lt;/strong&gt;&lt;/div&gt;" style="rounded=0;whiteSpace=wrap;html=1;" vertex="1" parent="WIyWlLk6GJQsqaUBKTNV-1">
          <mxGeometry x="510" y="515" width="260" height="70" as="geometry" />
        </mxCell>
      </root>
    </mxGraphModel>
  </diagram>
</mxfile>
